<svg xmlns="http://www.w3.org/2000/svg" xmlns:xlink="http://www.w3.org/1999/xlink" viewBox="0 0 81 81" fill="#fff" fill-rule="evenodd" stroke="#000" stroke-linecap="round" stroke-linejoin="round"><use xlink:href="#A" x=".5" y=".5"/><symbol id="A" overflow="visible"><g stroke="none"><path d="M0 10.946v58.109C0 75.171 13.771 80 30.656 80V10.946H0z" fill="#3999c6"/><path d="M30.328 80h.492c17.049 0 30.656-4.829 30.656-10.946V10.946H30.328V80z" fill="#59b4d9"/><path d="M61.475 10.946c0 5.956-13.77 10.946-30.656 10.946S0 16.901 0 10.946 13.771 0 30.656 0s30.82 4.99 30.82 10.946"/><path d="M55.246 10.302c0 4.024-10.984 7.243-24.426 7.243S6.23 14.326 6.23 10.302s10.984-7.244 24.426-7.244 24.59 3.219 24.59 7.244" fill="#7fba00"/><path d="M50 14.647c3.279-1.288 5.082-2.736 5.082-4.346 0-4.024-10.983-7.244-24.426-7.244S6.23 6.277 6.23 10.302c0 1.61 1.967 3.219 5.082 4.346 4.426-1.77 11.475-2.736 19.344-2.736S45.574 13.038 50 14.647" fill="#b8d432"/><g fill="#0072c6"><path d="M39.016 33.964v38.793c0 4.024 9.18 7.243 20.492 7.243V33.964H39.016z"/><use xlink:href="#C"/></g><use xlink:href="#C" opacity=".15"/><path d="M80 33.963c0 4.024-9.181 7.243-20.492 7.243s-20.492-3.219-20.492-7.243 9.18-7.243 20.492-7.243S80 29.939 80 33.963"/><path d="M75.738 33.481c0 2.575-7.377 4.829-16.229 4.829s-16.23-2.093-16.23-4.829c0-2.576 7.377-4.829 16.23-4.829s16.229 2.253 16.229 4.829" fill="#7fba00"/><path d="M72.295 36.378c2.131-.805 3.443-1.771 3.443-2.897 0-2.576-7.377-4.829-16.229-4.829-9.016 0-16.23 2.093-16.23 4.829 0 1.127 1.311 2.093 3.443 2.897 2.951-1.127 7.705-1.932 12.951-1.932 4.918 0 9.508.805 12.623 1.932" fill="#b8d432"/><path d="M70.656 57.465L47.869 75.976l8.853-14.326h-7.705L71.804 43.3l-8.853 14.165z"/></g></symbol><defs ><path id="C" d="M59.18 80h.328C70.819 80 80 76.781 80 72.757V33.964H59.18V80z"/></defs></svg>